<svg width="66" height="66" viewBox="0 0 66 66" fill="none" xmlns="http://www.w3.org/2000/svg">
<path d="M25.7893 57.757C25.7862 57.3775 25.7831 55.7337 25.78 54.1951L25.7769 52.5967C18.8376 53.5403 17.1577 48.6985 17.1392 48.647C16.176 46.205 14.8591 45.5068 14.8024 45.4779L14.6745 45.4037C14.197 45.0778 12.9306 44.2105 13.2905 43.07C13.6154 42.0418 14.8745 41.9356 15.4469 41.9542C18.617 42.1759 20.2216 45.0252 20.2876 45.1459C21.9056 47.9189 24.3755 47.6322 25.9687 47.0475C26.1172 46.338 26.3472 45.6863 26.6483 45.1108C21.5375 44.2044 15.747 41.486 15.747 31.5973C15.747 28.882 16.5926 26.4823 18.2643 24.4518C17.891 23.2081 17.4661 20.6712 18.7242 17.4754L18.9036 17.0196L19.3698 16.8711C19.7988 16.7298 22.1418 16.2276 26.9587 19.3801C28.947 18.8707 31.0518 18.6077 33.2225 18.5974C35.4036 18.6077 37.5105 18.8707 39.5029 19.3801C44.3157 16.2265 46.6535 16.735 47.0836 16.8711L47.5487 17.0206L47.7281 17.4744C48.9914 20.6692 48.5665 23.2071 48.1932 24.4518C49.8618 26.4761 50.7074 28.8769 50.7074 31.5973C50.7074 41.488 44.9107 44.1982 39.7885 45.0933C40.3691 46.1916 40.6836 47.5704 40.6836 49.0925C40.6836 50.8281 40.6764 56.5216 40.6682 57.757L38.6057 57.7426C38.6139 56.5092 38.6211 50.825 38.6211 49.0914C38.6211 46.5731 37.6487 45.4594 37.229 45.0964L35.4449 43.5526L37.79 43.2917C43.1576 42.6956 48.6439 40.8384 48.6439 31.5963C48.6439 29.1935 47.8426 27.099 46.2617 25.3717L45.8182 24.888L46.0678 24.2827C46.239 23.8691 46.9897 21.7644 46.0235 18.8263C45.2418 18.8727 43.3752 19.2409 40.2649 21.3498L39.869 21.6169L39.41 21.49C37.4888 20.9559 35.349 20.6692 33.2215 20.6589C31.1054 20.6692 28.9686 20.9559 27.0505 21.49L26.5916 21.6169L26.1966 21.3498C23.0833 19.2419 21.2126 18.8707 20.4278 18.8243C19.4636 21.7644 20.2154 23.8691 20.3866 24.2827L20.6361 24.888L20.1937 25.3717C18.6097 27.1052 17.8074 29.1997 17.8074 31.5963C17.8074 40.8342 23.2834 42.7029 28.6397 43.3123L30.962 43.5763L29.2007 45.1129C28.817 45.448 28.1385 46.2596 27.9075 47.9251L27.8301 48.4913L27.3083 48.7254C25.946 49.3359 21.2869 50.9549 18.4932 46.1627C18.4777 46.1369 17.9322 45.1882 16.9443 44.557C17.6105 45.216 18.422 46.2823 19.0769 47.9468C19.145 48.1427 20.4763 51.682 26.5844 50.3589L27.8281 50.0887L27.8405 54.191C27.8435 55.7245 27.8466 57.3631 27.8497 57.7426L25.7893 57.757Z" fill="url(#paint0_linear_231_150)"/>
<path d="M33 59.8125C18.215 59.8125 6.1875 47.785 6.1875 33C6.1875 18.215 18.215 6.1875 33 6.1875C47.785 6.1875 59.8125 18.215 59.8125 33C59.8125 47.785 47.785 59.8125 33 59.8125ZM33 8.25C19.3535 8.25 8.25 19.3535 8.25 33C8.25 46.6465 19.3535 57.75 33 57.75C46.6465 57.75 57.75 46.6465 57.75 33C57.75 19.3535 46.6465 8.25 33 8.25Z" fill="url(#paint1_linear_231_150)"/>
<defs>
<linearGradient id="paint0_linear_231_150" x1="50.7074" y1="37.6579" x2="13.2271" y2="37.6579" gradientUnits="userSpaceOnUse">
<stop stop-color="#954694"/>
<stop offset="1" stop-color="#5F4289"/>
</linearGradient>
<linearGradient id="paint1_linear_231_150" x1="59.8125" y1="33.5257" x2="6.1875" y2="33.5257" gradientUnits="userSpaceOnUse">
<stop stop-color="#954694"/>
<stop offset="1" stop-color="#5F4289"/>
</linearGradient>
</defs>
</svg>
