<svg width="64" height="64" viewBox="0 0 64 64" fill="none" xmlns="http://www.w3.org/2000/svg">
<path fill-rule="evenodd" clip-rule="evenodd" d="M22 48V26H16V48H22Z" fill="url(#paint0_linear_231_145)"/>
<path fill-rule="evenodd" clip-rule="evenodd" d="M19.3581 22.9999C21.8701 22.9999 23.4341 21.5259 23.4341 19.4459C23.3871 17.3199 21.8701 15.7969 19.4061 15.7969C16.9411 15.7969 15.3301 17.2719 15.3301 19.3979C15.3301 21.4779 16.8931 22.9999 19.3111 22.9999H19.3581Z" fill="url(#paint1_linear_231_145)"/>
<path fill-rule="evenodd" clip-rule="evenodd" d="M26.946 48H34V35.911C34 35.263 34.122 34.616 34.313 34.153C34.833 32.858 36.19 31.518 38.18 31.518C40.787 31.518 42.001 33.506 42.001 36.419V48H48.001V35.588C48.001 28.931 44.916 26.09 40.175 26.09C36.289 26.09 35.051 28 34.103 30H34V26H26.946C27.041 28 26.771 48 26.771 48H26.946Z" fill="url(#paint2_linear_231_145)"/>
<path fill-rule="evenodd" clip-rule="evenodd" d="M50 57H14C10.141 57 7 53.859 7 50V14C7 10.141 10.141 7 14 7H50C53.859 7 57 10.141 57 14V50C57 53.859 53.859 57 50 57ZM14 9C11.243 9 9 11.243 9 14V50C9 52.757 11.243 55 14 55H50C52.757 55 55 52.757 55 50V14C55 11.243 52.757 9 50 9H14Z" fill="url(#paint3_linear_231_145)"/>
<defs>
<linearGradient id="paint0_linear_231_145" x1="19" y1="24.858" x2="19" y2="49.041" gradientUnits="userSpaceOnUse">
<stop stop-color="#6DC7FF"/>
<stop offset="1" stop-color="#E6ABFF"/>
</linearGradient>
<linearGradient id="paint1_linear_231_145" x1="19.3821" y1="15.4229" x2="19.3821" y2="23.3409" gradientUnits="userSpaceOnUse">
<stop stop-color="#6DC7FF"/>
<stop offset="1" stop-color="#E6ABFF"/>
</linearGradient>
<linearGradient id="paint2_linear_231_145" x1="37.386" y1="14.125" x2="37.386" y2="49.525" gradientUnits="userSpaceOnUse">
<stop stop-color="#6DC7FF"/>
<stop offset="1" stop-color="#E6ABFF"/>
</linearGradient>
<linearGradient id="paint3_linear_231_145" x1="57" y1="32.4902" x2="7" y2="32.4902" gradientUnits="userSpaceOnUse">
<stop stop-color="#954694"/>
<stop offset="1" stop-color="#5F4289"/>
</linearGradient>
</defs>
</svg>
